<svg id="Capa_1" data-name="Capa 1" xmlns="http://www.w3.org/2000/svg" viewBox="0 0 48 48"><defs><style>.cls-1{fill:#f5e6cf;}</style></defs><path class="cls-1" d="M47,5.93V42.07A4.93,4.93,0,0,1,42.07,47H5.93A4.93,4.93,0,0,1,1,42.07V5.93A4.93,4.93,0,0,1,5.93,1H42.07A4.93,4.93,0,0,1,47,5.93Zm-6.57,7.88a13.18,13.18,0,0,1-3.89,1,6.66,6.66,0,0,0,3-3.71,13.23,13.23,0,0,1-4.27,1.63,6.75,6.75,0,0,0-11.49,6.15,19.14,19.14,0,0,1-13.88-7A6.72,6.72,0,0,0,9,15.28H9a7.5,7.5,0,0,0,3,5.6,6.74,6.74,0,0,1-3-.85v.08a6.74,6.74,0,0,0,5.39,6.61,7.12,7.12,0,0,1-3,.12,6.74,6.74,0,0,0,6.29,4.68A13.53,13.53,0,0,1,9.19,34.4a14.64,14.64,0,0,1-1.62-.08,19.08,19.08,0,0,0,10.34,3c12.38,0,19.16-10.26,19.16-19.16,0-.29,0-.59,0-.88A14.19,14.19,0,0,0,40.43,13.81Z"/></svg>